<svg xmlns="http://www.w3.org/2000/svg" width="600" height="24" fill="none"><g clip-path="url(#a)"><path fill="#0A0A0A" d="M0 23.512h600V7.19c0-3.236-3.641-5.132-6.292-3.278l-6.39 4.468a4 4 0 0 1-4.585 0l-10.39-7.265a4 4 0 0 0-4.584 0L557.368 8.38a4 4 0 0 1-4.584 0l-10.39-7.265a4 4 0 0 0-4.584 0L527.419 8.38a4 4 0 0 1-4.584 0l-10.391-7.265a4 4 0 0 0-4.584 0L497.47 8.38a4.001 4.001 0 0 1-4.585 0l-10.39-7.265a4.001 4.001 0 0 0-4.585 0L467.521 8.38a4 4 0 0 1-4.585 0l-10.389-7.265a4.001 4.001 0 0 0-4.585 0l-10.39 7.265a4.001 4.001 0 0 1-4.585 0l-10.39-7.266a4.001 4.001 0 0 0-4.585 0l-10.39 7.266a4.001 4.001 0 0 1-4.585 0l-10.391-7.266a4 4 0 0 0-4.584 0L377.671 8.38a4 4 0 0 1-4.584 0l-10.391-7.266a4 4 0 0 0-4.584 0L347.721 8.38a4 4 0 0 1-4.584 0l-10.392-7.266a4 4 0 0 0-4.584 0L317.769 8.38a4 4 0 0 1-4.584 0l-10.396-7.268a4 4 0 0 0-4.579-.004l-10.447 7.28a4 4 0 0 1-4.574 0l-10.45-7.282a4 4 0 0 0-4.574 0l-10.451 7.283a4 4 0 0 1-4.574 0l-10.451-7.283a4 4 0 0 0-4.574 0l-10.451 7.283a4 4 0 0 1-4.574 0l-10.45-7.283a4 4 0 0 0-4.574 0l-10.451 7.283a4 4 0 0 1-4.574 0L182.59 1.106a4 4 0 0 0-4.574 0l-10.45 7.283a4 4 0 0 1-4.574 0l-10.45-7.283a4.001 4.001 0 0 0-4.575 0l-10.451 7.283a4 4 0 0 1-4.574 0l-10.451-7.283a4 4 0 0 0-4.574 0l-10.451 7.283a4 4 0 0 1-4.574 0L92.441 1.106a4 4 0 0 0-4.574 0L77.416 8.389a4 4 0 0 1-4.574 0L62.39 1.106a4 4 0 0 0-4.574 0l-10.45 7.283a4 4 0 0 1-4.575 0L32.34 1.105a4 4 0 0 0-4.574 0L17.313 8.39a4 4 0 0 1-4.574 0L6.287 3.893C3.635 2.045 0 3.943 0 7.174v16.338Z"/></g><defs><clipPath id="a"><path fill="#fff" d="M0 24h600V0H0z"/></clipPath></defs></svg>