<svg xmlns="http://www.w3.org/2000/svg" width="22" height="22" fill="none"><path stroke="#fff" stroke-linecap="round" stroke-linejoin="round" stroke-width="1.7" d="M1 12.111V13c0 3.333 0 5 .849 6.168.274.377.606.709.983.983C4 21 5.667 21 9 21h4c3.333 0 5 0 6.168-.849a4.45 4.45 0 0 0 .983-.983C21 18 21 16.333 21 13v-.889m-20 0c0-2.07 0-3.106.338-3.923a4.444 4.444 0 0 1 2.406-2.405c.816-.339 1.852-.339 3.923-.339h6.666c2.071 0 3.107 0 3.923.339a4.445 4.445 0 0 1 2.406 2.405C21 9.005 21 10.04 21 12.111m-20 0h20M8.778 8.778h4.444M6.556 5.444a4.444 4.444 0 1 1 8.888 0"/></svg>