<svg xmlns="http://www.w3.org/2000/svg" width="100" height="26" fill="none"><rect width="25" height="25" y=".375" fill="url(#a)" rx="3.125"/><path fill="#fff" d="M7.111 9.465c-.842.327-1.477 1.232-1.477 2.105v2.448c0 1.028.87 1.591 1.862 1.206l8.595-3.343c.842-.327 1.477-1.232 1.477-2.105V7.328c0-1.027-.87-1.591-1.862-1.206L7.111 9.465Z"/><path fill="#fff" fill-opacity=".5" d="M16.083 13.87c.842.327 1.477 1.232 1.477 2.105v2.448c0 1.028-.871 1.591-1.863 1.206l-8.595-3.343c-.842-.327-1.477-1.233-1.477-2.105v-2.448c0-1.028.87-1.592 1.862-1.206l8.596 3.343Z"/><path fill="#fff" d="M35.704 9.01V7.69h7.888v1.32H40.42v8.865h-1.53V9.01h-3.186Zm11.388 9.023c-.747 0-1.395-.162-1.941-.486a3.25 3.25 0 0 1-1.265-1.367c-.292-.592-.438-1.283-.438-2.071 0-.784.144-1.474.431-2.071.292-.597.7-1.062 1.224-1.395.528-.337 1.148-.506 1.86-.506.432 0 .851.07 1.257.212.406.141.77.365 1.094.67.323.305.578.702.765 1.19.192.487.287 1.075.287 1.763v.533H44.29v-1.114h5.312l-.69.37c0-.47-.074-.885-.22-1.245a1.818 1.818 0 0 0-.656-.84c-.287-.206-.644-.308-1.073-.308-.428 0-.795.102-1.1.307a2 2 0 0 0-.69.814c-.16.337-.24.706-.24 1.107v.759c0 .524.091.968.273 1.333.183.365.436.643.76.834.327.191.708.287 1.14.287.283 0 .538-.04.766-.123a1.577 1.577 0 0 0 .984-.977l1.409.266c-.114.41-.315.77-.602 1.08a2.92 2.92 0 0 1-1.087.725 4.076 4.076 0 0 1-1.483.253Zm7.8 0c-.734 0-1.368-.169-1.9-.506a3.328 3.328 0 0 1-1.231-1.395c-.287-.592-.431-1.271-.431-2.037 0-.78.146-1.465.438-2.057a3.381 3.381 0 0 1 1.237-1.395c.533-.337 1.157-.506 1.873-.506.583 0 1.1.107 1.552.322.455.21.822.508 1.1.895.283.387.45.839.5 1.354h-1.45a1.705 1.705 0 0 0-.294-.664 1.51 1.51 0 0 0-.56-.478 1.8 1.8 0 0 0-.828-.178c-.414 0-.777.11-1.087.328-.305.215-.544.522-.717.923-.174.401-.26.875-.26 1.422 0 .552.084 1.032.253 1.442.168.41.408.727.718.95.314.22.679.329 1.093.329.429 0 .793-.119 1.094-.356.305-.237.501-.56.588-.97h1.45c-.05.496-.21.938-.48 1.326a2.796 2.796 0 0 1-1.08.916c-.45.223-.977.335-1.578.335Zm5.947-4.69v4.532h-1.477V7.69h1.456v3.8h.102c.178-.414.45-.742.814-.984.37-.246.85-.369 1.442-.369.524 0 .983.107 1.374.322.392.214.698.535.916.963.224.429.335.962.335 1.6v4.853h-1.49V13.2c0-.565-.146-1.003-.437-1.313-.287-.31-.689-.465-1.204-.465-.355 0-.67.078-.943.233-.273.15-.49.367-.65.65-.159.282-.238.628-.238 1.038ZM75.85 7.69v10.185h-1.436l-5.16-7.464h-.103v7.464h-1.538V7.69h1.421l5.182 7.478h.096V7.69h1.538Zm5.024 10.343c-.715 0-1.342-.164-1.88-.492a3.328 3.328 0 0 1-1.244-1.381c-.292-.593-.437-1.28-.437-2.065 0-.793.145-1.486.437-2.078a3.319 3.319 0 0 1 1.244-1.388c.538-.328 1.165-.492 1.88-.492.72 0 1.347.164 1.88.492.533.329.948.791 1.244 1.388.296.593.444 1.285.444 2.078 0 .784-.148 1.472-.444 2.065a3.328 3.328 0 0 1-1.244 1.38c-.533.329-1.16.493-1.88.493Zm0-1.251c.47 0 .857-.123 1.162-.37a2.15 2.15 0 0 0 .677-.977c.15-.41.226-.857.226-1.34 0-.492-.076-.943-.226-1.353a2.16 2.16 0 0 0-.677-.985c-.305-.246-.692-.369-1.162-.369-.465 0-.85.123-1.155.37a2.229 2.229 0 0 0-.677.984c-.15.41-.225.861-.225 1.353 0 .483.075.93.225 1.34.15.406.376.731.677.978.305.246.69.369 1.155.369Zm11.17-6.55-2.762 7.643h-1.6l-2.768-7.642h1.593l1.941 5.892h.082l1.928-5.892h1.586Zm3.082 7.808c-.483 0-.92-.09-1.312-.267a2.195 2.195 0 0 1-.93-.793c-.228-.346-.341-.768-.341-1.265 0-.433.081-.786.246-1.06a1.89 1.89 0 0 1 .676-.662 3.45 3.45 0 0 1 .944-.37 9.836 9.836 0 0 1 1.066-.19c.46-.051.832-.094 1.114-.13.283-.037.488-.094.616-.172.132-.082.198-.212.198-.39v-.034c0-.432-.123-.767-.37-1.004-.24-.237-.6-.356-1.08-.356-.496 0-.89.11-1.182.328-.287.214-.485.458-.595.732l-1.401-.322c.168-.464.412-.838.731-1.12a3.04 3.04 0 0 1 1.108-.63c.42-.132.857-.198 1.312-.198.306 0 .63.037.971.11.342.068.663.198.964.39.305.186.554.455.745.806.191.35.287.804.287 1.36v5.072h-1.456V16.83h-.055a2.01 2.01 0 0 1-.43.56 2.275 2.275 0 0 1-.739.465c-.3.123-.663.185-1.087.185Zm.322-1.19c.415 0 .768-.08 1.06-.24a1.75 1.75 0 0 0 .67-.642c.154-.264.232-.544.232-.84v-.992c-.055.05-.157.098-.308.144-.15.045-.321.084-.513.116-.191.032-.378.061-.56.089-.182.023-.335.04-.458.055-.287.04-.55.104-.786.191a1.333 1.333 0 0 0-.575.37c-.14.159-.211.37-.211.635 0 .369.136.647.41.834.273.187.62.28 1.039.28Z"/><defs><linearGradient id="a" x1="1.563" x2="26.703" y1="1.313" y2="4.736" gradientUnits="userSpaceOnUse"><stop stop-color="#1565EF"/><stop offset="1" stop-color="#0B419D"/></linearGradient></defs></svg>