<svg xmlns="http://www.w3.org/2000/svg" width="50" height="50" fill="none"><rect width="50" height="50" fill="#000" rx="8.333"/><g stroke="#fff" clip-path="url(#a)"><path stroke-linecap="round" stroke-linejoin="round" stroke-width="1.592" d="M20.05 17.224h-3.302l13.678 16.98h3.302L20.05 17.224Z"/><path fill="#fff" stroke-width="1.061" d="M17.32 34.464a.79.79 0 0 1-.544-.173l-.06-.055a.791.791 0 0 1-.23-.606l.834.834Zm7.17-6.876-6.273 6.273-1.126-1.126 6.272-6.273 1.126 1.126Zm8.895-8.895-6.273 6.272-1.125-1.126 6.272-6.272 1.126 1.126Zm-.23-1.73a.792.792 0 0 1 .544.174l.06.055a.79.79 0 0 1 .23.604l-.835-.834Z"/></g><defs><clipPath id="a"><path fill="#fff" d="M15.06 15h20v20h-20z"/></clipPath></defs></svg>