<svg xmlns="http://www.w3.org/2000/svg" width="21" height="21" fill="none"><path fill="#fff" d="m1.744 4.788.771-.004a.771.771 0 0 0-.004-.075l-.767.079ZM16.221 19.26l.079-.768a.762.762 0 0 0-.074-.003l-.005.771ZM5.895 7.97l-.122-.761a.771.771 0 0 0-.558 1.127l.679-.366Zm7.144 7.141-.365.68a.773.773 0 0 0 1.127-.558l-.761-.121h-.001ZM3.323 2.42a2.828 2.828 0 0 1 4 0l1.09-1.09a4.37 4.37 0 0 0-6.18 0l1.09 1.09Zm4 0a2.825 2.825 0 0 1 0 3.996l1.09 1.09a4.368 4.368 0 0 0 0-6.177l-1.09 1.09Zm7.27 11.264a2.828 2.828 0 0 1 3.999 0l1.09-1.09a4.37 4.37 0 0 0-6.18 0l1.09 1.09Zm3.999 0a2.824 2.824 0 0 1 0 3.997l1.09 1.09a4.366 4.366 0 0 0 0-6.178l-1.09 1.091Zm-11.634.362C4.053 11.142 2.531 7.65 2.515 4.782l-1.542.01c.019 3.362 1.773 7.222 4.895 10.343l1.09-1.09ZM2.511 4.71a2.818 2.818 0 0 1 .812-2.29l-1.09-1.09A4.36 4.36 0 0 0 .977 4.867l1.535-.158Zm16.08 12.97a2.823 2.823 0 0 1-2.291.813l-.157 1.534a4.363 4.363 0 0 0 3.539-1.255l-1.09-1.091Zm-2.365.81c-2.87-.016-6.361-1.54-9.267-4.443l-1.09 1.09c3.123 3.123 6.983 4.876 10.348 4.894l.009-1.54ZM7.323 6.415c-.42.421-.963.699-1.55.792l.243 1.524a4.353 4.353 0 0 0 2.397-1.225l-1.09-1.09Zm2.18 5.088a16.884 16.884 0 0 1-2.93-3.9l-1.358.732a18.428 18.428 0 0 0 3.199 4.258l1.09-1.09Zm4.297 3.729c.091-.567.354-1.11.792-1.549l-1.09-1.09a4.352 4.352 0 0 0-1.224 2.395l1.522.244Zm-.395-.8a16.886 16.886 0 0 1-3.901-2.93l-1.09 1.091a18.434 18.434 0 0 0 4.26 3.196l.73-1.357Z"/></svg>