<svg xmlns="http://www.w3.org/2000/svg" width="22" height="22" fill="none"><path stroke="#fff" stroke-linecap="round" stroke-linejoin="round" stroke-width="1.7" d="m1 12.304 2.23-1.784m0 0 .371-.297 4.926-3.94c1.064-.852 1.596-1.278 2.207-1.36.2-.028.401-.028.6 0 .611.082 1.143.508 2.207 1.36l4.926 3.94.372.297m-15.61 0v4.46c0 2.508 0 3.762.64 4.641.206.284.456.534.74.74C5.488 21 6.742 21 9.25 21h3.568c2.508 0 3.763 0 4.642-.639.284-.206.533-.456.74-.74.639-.879.639-2.133.639-4.641v-4.46m2.23 1.784-2.23-1.784M1 8.402 8.527 2.38c1.064-.851 1.596-1.277 2.207-1.36.2-.027.401-.027.6 0 .611.083 1.143.509 2.207 1.36l7.527 6.022m-6.69 8.138H7.69"/></svg>