<svg xmlns="http://www.w3.org/2000/svg" width="12" height="12" fill="none"><g stroke="#8D8D8D" clip-path="url(#a)"><path stroke-linecap="round" stroke-linejoin="round" stroke-width=".955" d="M2.994 1.335h-1.98L9.22 11.523h1.981L2.994 1.335Z"/><path fill="#8D8D8D" stroke-width=".637" d="M1.356 11.678a.474.474 0 0 1-.287-.075l-.075-.062a.475.475 0 0 1-.138-.363l.5.5Zm4.302-4.126-3.764 3.764-.676-.676 3.764-3.763.676.675Zm5.337-5.337L7.23 5.98l-.675-.676L10.32 1.54l.676.675Zm-.138-1.038a.48.48 0 0 1 .288.077l.075.06c.1.1.144.233.137.363l-.5-.5Z"/></g><defs><clipPath id="a"><path fill="#fff" d="M0 0h12v12H0z"/></clipPath></defs></svg>