<svg xmlns="http://www.w3.org/2000/svg" width="50" height="50" fill="none"><rect width="50" height="50" fill="#0077B5" rx="8.333"/><g fill="#fff" clip-path="url(#a)"><path d="m37.913 37.555.007-.001v-9.059c0-4.431-.954-7.845-6.135-7.845-2.49 0-4.162 1.367-4.844 2.663h-.072v-2.249h-4.912v16.49h5.114v-8.165c0-2.15.408-4.229 3.07-4.229 2.624 0 2.663 2.453 2.663 4.367v8.028h5.11ZM13.628 21.067h5.12v16.49h-5.12v-16.49Zm2.558-8.21a2.967 2.967 0 0 0-2.966 2.966c0 1.637 1.329 2.994 2.966 2.994 1.637 0 2.966-1.357 2.966-2.994a2.968 2.968 0 0 0-2.966-2.966Z"/></g><defs><clipPath id="a"><path fill="#fff" d="M12.06 11h26v26h-26z"/></clipPath></defs></svg>