<?xml version='1.0'?>
<!--
Bitly Generated QR Code
v4
33x33
-->
<svg width='656' height='656'
xmlns='http://www.w3.org/2000/svg'
xmlns:xlink='http://www.w3.org/1999/xlink'>
	<g id='background' style='fill:#ffffff' >
<rect x="0" y="0" width="656" height="656" />
</g>
<g id='pips' style='fill:#000000' >
<path d="M66.4,256L80,256L93.6,256A2.4,2.4,0,0,1,96,258.4L96,269.6A2.4,2.4,0,0,0,98.4,272L109.6,272A2.4,2.4,0,0,0,112,269.6L112,258.4A2.4,2.4,0,0,0,109.6,256L98.4,256A2.4,2.4,0,0,1,96,253.6L96,240L96,226.4A2.4,2.4,0,0,1,98.4,224L109.6,224A2.4,2.4,0,0,0,112,221.6L112,210.4A2.4,2.4,0,0,1,114.4,208L125.6,208A2.4,2.4,0,0,1,128,210.4L128,224L128,240L128,256L128,269.6A2.4,2.4,0,0,0,130.4,272L144,272L157.6,272A2.4,2.4,0,0,1,160,274.4L160,285.6A2.4,2.4,0,0,1,157.6,288L144,288L130.4,288A2.4,2.4,0,0,0,128,290.4L128,301.6A2.4,2.4,0,0,1,125.6,304L114.4,304A2.4,2.4,0,0,1,112,301.6L112,290.4A2.4,2.4,0,0,0,109.6,288L96,288L82.4,288A2.4,2.4,0,0,1,80,285.6L80,274.4A2.4,2.4,0,0,0,77.6,272L66.4,272A2.4,2.4,0,0,1,64,269.6L64,258.4A2.4,2.4,0,0,1,66.4,256M66.4,288L77.6,288A2.4,2.4,0,0,1,80,290.4L80,304L80,317.6A2.4,2.4,0,0,0,82.4,320L93.6,320A2.4,2.4,0,0,0,96,317.6L96,306.4A2.4,2.4,0,0,1,98.4,304L109.6,304A2.4,2.4,0,0,1,112,306.4L112,320L112,333.6A2.4,2.4,0,0,1,109.6,336L96,336L80,336L66.4,336A2.4,2.4,0,0,1,64,333.6L64,320L64,304L64,290.4A2.4,2.4,0,0,1,66.4,288M66.4,368L77.6,368A2.4,2.4,0,0,0,80,365.6L80,354.4A2.4,2.4,0,0,1,82.4,352L93.6,352A2.4,2.4,0,0,1,96,354.4L96,368L96,381.6A2.4,2.4,0,0,0,98.4,384L109.6,384A2.4,2.4,0,0,0,112,381.6L112,368L112,352L112,338.4A2.4,2.4,0,0,1,114.4,336L125.6,336A2.4,2.4,0,0,1,128,338.4L128,349.6A2.4,2.4,0,0,0,130.4,352L141.6,352A2.4,2.4,0,0,1,144,354.4L144,368L144,381.6A2.4,2.4,0,0,1,141.6,384L130.4,384A2.4,2.4,0,0,0,128,386.4L128,400L128,416L128,429.6A2.4,2.4,0,0,1,125.6,432L112,432L98.4,432A2.4,2.4,0,0,1,96,429.6L96,418.4A2.4,2.4,0,0,1,98.4,416L109.6,416A2.4,2.4,0,0,0,112,413.6L112,402.4A2.4,2.4,0,0,0,109.6,400L98.4,400A2.4,2.4,0,0,0,96,402.4L96,413.6A2.4,2.4,0,0,1,93.6,416L82.4,416A2.4,2.4,0,0,0,80,418.4L80,432L80,445.6A2.4,2.4,0,0,0,82.4,448L93.6,448A2.4,2.4,0,0,1,96,450.4L96,461.6A2.4,2.4,0,0,1,93.6,464L80,464L66.4,464A2.4,2.4,0,0,1,64,461.6L64,448L64,432L64,416L64,400L64,384L64,370.4A2.4,2.4,0,0,1,66.4,368M82.4,208L93.6,208A2.4,2.4,0,0,1,96,210.4L96,221.6A2.4,2.4,0,0,1,93.6,224L82.4,224A2.4,2.4,0,0,1,80,221.6L80,210.4A2.4,2.4,0,0,1,82.4,208M146.4,192L160,192L173.6,192A2.4,2.4,0,0,1,176,194.4L176,205.6A2.4,2.4,0,0,1,173.6,208L162.4,208A2.4,2.4,0,0,0,160,210.4L160,221.6A2.4,2.4,0,0,1,157.6,224L146.4,224A2.4,2.4,0,0,1,144,221.6L144,208L144,194.4A2.4,2.4,0,0,1,146.4,192M146.4,336L157.6,336A2.4,2.4,0,0,1,160,338.4L160,349.6A2.4,2.4,0,0,1,157.6,352L146.4,352A2.4,2.4,0,0,1,144,349.6L144,338.4A2.4,2.4,0,0,1,146.4,336M146.4,384L160,384L173.6,384A2.4,2.4,0,0,0,176,381.6L176,370.4A2.4,2.4,0,0,1,178.4,368L192,368L205.6,368A2.4,2.4,0,0,0,208,365.6L208,354.4A2.4,2.4,0,0,0,205.6,352L194.4,352A2.4,2.4,0,0,1,192,349.6L192,338.4A2.4,2.4,0,0,0,189.6,336L176,336L162.4,336A2.4,2.4,0,0,1,160,333.6L160,322.4A2.4,2.4,0,0,1,162.4,320L173.6,320A2.4,2.4,0,0,0,176,317.6L176,306.4A2.4,2.4,0,0,1,178.4,304L192,304L208,304L221.6,304A2.4,2.4,0,0,1,224,306.4L224,317.6A2.4,2.4,0,0,0,226.4,320L240,320L256,320L269.6,320A2.4,2.4,0,0,1,272,322.4L272,333.6A2.4,2.4,0,0,0,274.4,336L285.6,336A2.4,2.4,0,0,0,288,333.6L288,322.4A2.4,2.4,0,0,1,290.4,320L301.6,320A2.4,2.4,0,0,0,304,317.6L304,306.4A2.4,2.4,0,0,1,306.4,304L317.6,304A2.4,2.4,0,0,0,320,301.6L320,290.4A2.4,2.4,0,0,1,322.4,288L333.6,288A2.4,2.4,0,0,1,336,290.4L336,301.6A2.4,2.4,0,0,0,338.4,304L349.6,304A2.4,2.4,0,0,0,352,301.6L352,290.4A2.4,2.4,0,0,1,354.4,288L368,288L381.6,288A2.4,2.4,0,0,0,384,285.6L384,274.4A2.4,2.4,0,0,1,386.4,272L397.6,272A2.4,2.4,0,0,0,400,269.6L400,258.4A2.4,2.4,0,0,1,402.4,256L413.6,256A2.4,2.4,0,0,0,416,253.6L416,242.4A2.4,2.4,0,0,1,418.4,240L432,240L445.6,240A2.4,2.4,0,0,1,448,242.4L448,253.6A2.4,2.4,0,0,1,445.6,256L434.4,256A2.4,2.4,0,0,0,432,258.4L432,269.6A2.4,2.4,0,0,0,434.4,272L445.6,272A2.4,2.4,0,0,0,448,269.6L448,258.4A2.4,2.4,0,0,1,450.4,256L461.6,256A2.4,2.4,0,0,1,464,258.4L464,272L464,285.6A2.4,2.4,0,0,1,461.6,288L448,288L434.4,288A2.4,2.4,0,0,0,432,290.4L432,301.6A2.4,2.4,0,0,1,429.6,304L418.4,304A2.4,2.4,0,0,1,416,301.6L416,290.4A2.4,2.4,0,0,0,413.6,288L402.4,288A2.4,2.4,0,0,0,400,290.4L400,301.6A2.4,2.4,0,0,1,397.6,304L386.4,304A2.4,2.4,0,0,0,384,306.4L384,317.6A2.4,2.4,0,0,1,381.6,320L368,320L354.4,320A2.4,2.4,0,0,0,352,322.4L352,333.6A2.4,2.4,0,0,0,354.4,336L365.6,336A2.4,2.4,0,0,1,368,338.4L368,349.6A2.4,2.4,0,0,1,365.6,352L354.4,352A2.4,2.4,0,0,0,352,354.4L352,365.6A2.4,2.4,0,0,0,354.4,368L365.6,368A2.4,2.4,0,0,1,368,370.4L368,381.6A2.4,2.4,0,0,1,365.6,384L354.4,384A2.4,2.4,0,0,0,352,386.4L352,397.6A2.4,2.4,0,0,1,349.6,400L338.4,400A2.4,2.4,0,0,1,336,397.6L336,386.4A2.4,2.4,0,0,0,333.6,384L322.4,384A2.4,2.4,0,0,1,320,381.6L320,370.4A2.4,2.4,0,0,1,322.4,368L333.6,368A2.4,2.4,0,0,0,336,365.6L336,352L336,336L336,322.4A2.4,2.4,0,0,0,333.6,320L322.4,320A2.4,2.4,0,0,0,320,322.4L320,333.6A2.4,2.4,0,0,1,317.6,336L306.4,336A2.4,2.4,0,0,0,304,338.4L304,349.6A2.4,2.4,0,0,1,301.6,352L290.4,352A2.4,2.4,0,0,0,288,354.4L288,368L288,381.6A2.4,2.4,0,0,0,290.4,384L304,384L317.6,384A2.4,2.4,0,0,1,320,386.4L320,397.6A2.4,2.4,0,0,0,322.4,400L333.6,400A2.4,2.4,0,0,1,336,402.4L336,413.6A2.4,2.4,0,0,1,333.6,416L320,416L306.4,416A2.4,2.4,0,0,1,304,413.6L304,402.4A2.4,2.4,0,0,0,301.6,400L288,400L274.4,400A2.4,2.4,0,0,0,272,402.4L272,413.6A2.4,2.4,0,0,0,274.4,416L288,416L301.6,416A2.4,2.4,0,0,1,304,418.4L304,429.6A2.4,2.4,0,0,1,301.6,432L288,432L272,432L256,432L242.4,432A2.4,2.4,0,0,1,240,429.6L240,416L240,402.4A2.4,2.4,0,0,1,242.4,400L253.6,400A2.4,2.4,0,0,0,256,397.6L256,384L256,370.4A2.4,2.4,0,0,1,258.4,368L269.6,368A2.4,2.4,0,0,0,272,365.6L272,354.4A2.4,2.4,0,0,0,269.6,352L256,352L242.4,352A2.4,2.4,0,0,1,240,349.6L240,338.4A2.4,2.4,0,0,0,237.6,336L226.4,336A2.4,2.4,0,0,0,224,338.4L224,349.6A2.4,2.4,0,0,0,226.4,352L237.6,352A2.4,2.4,0,0,1,240,354.4L240,365.6A2.4,2.4,0,0,1,237.6,368L226.4,368A2.4,2.4,0,0,0,224,370.4L224,381.6A2.4,2.4,0,0,0,226.4,384L237.6,384A2.4,2.4,0,0,1,240,386.4L240,397.6A2.4,2.4,0,0,1,237.6,400L226.4,400A2.4,2.4,0,0,0,224,402.4L224,416L224,429.6A2.4,2.4,0,0,0,226.4,432L237.6,432A2.4,2.4,0,0,1,240,434.4L240,448L240,461.6A2.4,2.4,0,0,0,242.4,464L256,464L269.6,464A2.4,2.4,0,0,1,272,466.4L272,480L272,493.6A2.4,2.4,0,0,1,269.6,496L258.4,496A2.4,2.4,0,0,0,256,498.4L256,509.6A2.4,2.4,0,0,0,258.4,512L272,512L285.6,512A2.4,2.4,0,0,1,288,514.4L288,525.6A2.4,2.4,0,0,1,285.6,528L272,528L256,528L242.4,528A2.4,2.4,0,0,1,240,525.6L240,512L240,498.4A2.4,2.4,0,0,0,237.6,496L226.4,496A2.4,2.4,0,0,0,224,498.4L224,509.6A2.4,2.4,0,0,1,221.6,512L208,512L194.4,512A2.4,2.4,0,0,1,192,509.6L192,498.4A2.4,2.4,0,0,1,194.4,496L205.6,496A2.4,2.4,0,0,0,208,493.6L208,482.4A2.4,2.4,0,0,0,205.6,480L194.4,480A2.4,2.4,0,0,1,192,477.6L192,466.4A2.4,2.4,0,0,0,189.6,464L176,464L160,464L146.4,464A2.4,2.4,0,0,1,144,461.6L144,448L144,434.4A2.4,2.4,0,0,1,146.4,432L157.6,432A2.4,2.4,0,0,1,160,434.4L160,445.6A2.4,2.4,0,0,0,162.4,448L173.6,448A2.4,2.4,0,0,0,176,445.6L176,434.4A2.4,2.4,0,0,0,173.6,432L162.4,432A2.4,2.4,0,0,1,160,429.6L160,418.4A2.4,2.4,0,0,1,162.4,416L173.6,416A2.4,2.4,0,0,0,176,413.6L176,402.4A2.4,2.4,0,0,0,173.6,400L160,400L146.4,400A2.4,2.4,0,0,1,144,397.6L144,386.4A2.4,2.4,0,0,1,146.4,384M162.4,224L173.6,224A2.4,2.4,0,0,1,176,226.4L176,237.6A2.4,2.4,0,0,1,173.6,240L162.4,240A2.4,2.4,0,0,1,160,237.6L160,226.4A2.4,2.4,0,0,1,162.4,224M162.4,256L173.6,256A2.4,2.4,0,0,1,176,258.4L176,269.6A2.4,2.4,0,0,1,173.6,272L162.4,272A2.4,2.4,0,0,1,160,269.6L160,258.4A2.4,2.4,0,0,1,162.4,256M162.4,288L173.6,288A2.4,2.4,0,0,1,176,290.4L176,301.6A2.4,2.4,0,0,1,173.6,304L162.4,304A2.4,2.4,0,0,1,160,301.6L160,290.4A2.4,2.4,0,0,1,162.4,288M162.4,352L173.6,352A2.4,2.4,0,0,1,176,354.4L176,365.6A2.4,2.4,0,0,1,173.6,368L162.4,368A2.4,2.4,0,0,1,160,365.6L160,354.4A2.4,2.4,0,0,1,162.4,352M178.4,272L189.6,272A2.4,2.4,0,0,0,192,269.6L192,258.4A2.4,2.4,0,0,1,194.4,256L205.6,256A2.4,2.4,0,0,0,208,253.6L208,242.4A2.4,2.4,0,0,1,210.4,240L221.6,240A2.4,2.4,0,0,1,224,242.4L224,256L224,269.6A2.4,2.4,0,0,0,226.4,272L240,272L253.6,272A2.4,2.4,0,0,1,256,274.4L256,285.6A2.4,2.4,0,0,1,253.6,288L240,288L224,288L208,288L192,288L178.4,288A2.4,2.4,0,0,1,176,285.6L176,274.4A2.4,2.4,0,0,1,178.4,272M192,402.4L192,416L192,429.6A2.4,2.4,0,0,0,194.4,432L205.6,432A2.4,2.4,0,0,0,208,429.6L208,416L208,402.4A2.4,2.4,0,0,0,205.6,400L194.4,400A2.4,2.4,0,0,0,192,402.4M194.4,64L205.6,64A2.4,2.4,0,0,1,208,66.4L208,77.6A2.4,2.4,0,0,1,205.6,80L194.4,80A2.4,2.4,0,0,1,192,77.6L192,66.4A2.4,2.4,0,0,1,194.4,64M194.4,96L205.6,96A2.4,2.4,0,0,0,208,93.6L208,82.4A2.4,2.4,0,0,1,210.4,80L224,80L237.6,80A2.4,2.4,0,0,0,240,77.6L240,66.4A2.4,2.4,0,0,1,242.4,64L253.6,64A2.4,2.4,0,0,1,256,66.4L256,80L256,93.6A2.4,2.4,0,0,0,258.4,96L269.6,96A2.4,2.4,0,0,1,272,98.4L272,112L272,125.6A2.4,2.4,0,0,1,269.6,128L258.4,128A2.4,2.4,0,0,1,256,125.6L256,114.4A2.4,2.4,0,0,0,253.6,112L242.4,112A2.4,2.4,0,0,1,240,109.6L240,98.4A2.4,2.4,0,0,0,237.6,96L226.4,96A2.4,2.4,0,0,0,224,98.4L224,109.6A2.4,2.4,0,0,1,221.6,112L208,112L194.4,112A2.4,2.4,0,0,1,192,109.6L192,98.4A2.4,2.4,0,0,1,194.4,96M194.4,128L205.6,128A2.4,2.4,0,0,1,208,130.4L208,141.6A2.4,2.4,0,0,1,205.6,144L194.4,144A2.4,2.4,0,0,1,192,141.6L192,130.4A2.4,2.4,0,0,1,194.4,128M194.4,160L205.6,160A2.4,2.4,0,0,1,208,162.4L208,176L208,189.6A2.4,2.4,0,0,1,205.6,192L194.4,192A2.4,2.4,0,0,1,192,189.6L192,176L192,162.4A2.4,2.4,0,0,1,194.4,160M194.4,208L205.6,208A2.4,2.4,0,0,0,208,205.6L208,194.4A2.4,2.4,0,0,1,210.4,192L221.6,192A2.4,2.4,0,0,1,224,194.4L224,205.6A2.4,2.4,0,0,0,226.4,208L237.6,208A2.4,2.4,0,0,1,240,210.4L240,221.6A2.4,2.4,0,0,0,242.4,224L256,224L269.6,224A2.4,2.4,0,0,0,272,221.6L272,208L272,194.4A2.4,2.4,0,0,1,274.4,192L285.6,192A2.4,2.4,0,0,1,288,194.4L288,205.6A2.4,2.4,0,0,0,290.4,208L301.6,208A2.4,2.4,0,0,1,304,210.4L304,224L304,237.6A2.4,2.4,0,0,1,301.6,240L288,240L272,240L258.4,240A2.4,2.4,0,0,0,256,242.4L256,253.6A2.4,2.4,0,0,1,253.6,256L242.4,256A2.4,2.4,0,0,1,240,253.6L240,242.4A2.4,2.4,0,0,0,237.6,240L226.4,240A2.4,2.4,0,0,1,224,237.6L224,226.4A2.4,2.4,0,0,0,221.6,224L208,224L194.4,224A2.4,2.4,0,0,1,192,221.6L192,210.4A2.4,2.4,0,0,1,194.4,208M210.4,144L221.6,144A2.4,2.4,0,0,0,224,141.6L224,130.4A2.4,2.4,0,0,1,226.4,128L240,128L253.6,128A2.4,2.4,0,0,1,256,130.4L256,141.6A2.4,2.4,0,0,0,258.4,144L269.6,144A2.4,2.4,0,0,1,272,146.4L272,160L272,173.6A2.4,2.4,0,0,1,269.6,176L258.4,176A2.4,2.4,0,0,1,256,173.6L256,162.4A2.4,2.4,0,0,0,253.6,160L242.4,160A2.4,2.4,0,0,0,240,162.4L240,173.6A2.4,2.4,0,0,1,237.6,176L226.4,176A2.4,2.4,0,0,1,224,173.6L224,162.4A2.4,2.4,0,0,0,221.6,160L210.4,160A2.4,2.4,0,0,1,208,157.6L208,146.4A2.4,2.4,0,0,1,210.4,144M210.4,528L224,528L237.6,528A2.4,2.4,0,0,1,240,530.4L240,544L240,557.6A2.4,2.4,0,0,1,237.6,560L226.4,560A2.4,2.4,0,0,1,224,557.6L224,546.4A2.4,2.4,0,0,0,221.6,544L210.4,544A2.4,2.4,0,0,1,208,541.6L208,530.4A2.4,2.4,0,0,1,210.4,528M210.4,560L221.6,560A2.4,2.4,0,0,1,224,562.4L224,576L224,589.6A2.4,2.4,0,0,1,221.6,592L210.4,592A2.4,2.4,0,0,1,208,589.6L208,576L208,562.4A2.4,2.4,0,0,1,210.4,560M242.4,176L253.6,176A2.4,2.4,0,0,1,256,178.4L256,189.6A2.4,2.4,0,0,1,253.6,192L242.4,192A2.4,2.4,0,0,1,240,189.6L240,178.4A2.4,2.4,0,0,1,242.4,176M242.4,576L256,576L269.6,576A2.4,2.4,0,0,1,272,578.4L272,589.6A2.4,2.4,0,0,1,269.6,592L256,592L242.4,592A2.4,2.4,0,0,1,240,589.6L240,578.4A2.4,2.4,0,0,1,242.4,576M258.4,256L272,256L288,256L301.6,256A2.4,2.4,0,0,0,304,253.6L304,242.4A2.4,2.4,0,0,1,306.4,240L317.6,240A2.4,2.4,0,0,1,320,242.4L320,256L320,272L320,285.6A2.4,2.4,0,0,1,317.6,288L306.4,288A2.4,2.4,0,0,1,304,285.6L304,274.4A2.4,2.4,0,0,0,301.6,272L288,272L272,272L258.4,272A2.4,2.4,0,0,1,256,269.6L256,258.4A2.4,2.4,0,0,1,258.4,256M258.4,288L269.6,288A2.4,2.4,0,0,1,272,290.4L272,301.6A2.4,2.4,0,0,1,269.6,304L258.4,304A2.4,2.4,0,0,1,256,301.6L256,290.4A2.4,2.4,0,0,1,258.4,288M274.4,64L285.6,64A2.4,2.4,0,0,1,288,66.4L288,80L288,93.6A2.4,2.4,0,0,1,285.6,96L274.4,96A2.4,2.4,0,0,1,272,93.6L272,80L272,66.4A2.4,2.4,0,0,1,274.4,64M274.4,128L285.6,128A2.4,2.4,0,0,1,288,130.4L288,141.6A2.4,2.4,0,0,1,285.6,144L274.4,144A2.4,2.4,0,0,1,272,141.6L272,130.4A2.4,2.4,0,0,1,274.4,128M274.4,448L288,448L301.6,448A2.4,2.4,0,0,1,304,450.4L304,461.6A2.4,2.4,0,0,0,306.4,464L317.6,464A2.4,2.4,0,0,1,320,466.4L320,480L320,496L320,509.6A2.4,2.4,0,0,1,317.6,512L304,512L290.4,512A2.4,2.4,0,0,1,288,509.6L288,496L288,480L288,466.4A2.4,2.4,0,0,0,285.6,464L274.4,464A2.4,2.4,0,0,1,272,461.6L272,450.4A2.4,2.4,0,0,1,274.4,448M290.4,112L301.6,112A2.4,2.4,0,0,0,304,109.6L304,96L304,82.4A2.4,2.4,0,0,1,306.4,80L317.6,80A2.4,2.4,0,0,0,320,77.6L320,66.4A2.4,2.4,0,0,1,322.4,64L333.6,64A2.4,2.4,0,0,1,336,66.4L336,77.6A2.4,2.4,0,0,0,338.4,80L352,80L365.6,80A2.4,2.4,0,0,0,368,77.6L368,66.4A2.4,2.4,0,0,1,370.4,64L384,64L397.6,64A2.4,2.4,0,0,1,400,66.4L400,77.6A2.4,2.4,0,0,1,397.6,80L386.4,80A2.4,2.4,0,0,0,384,82.4L384,93.6A2.4,2.4,0,0,1,381.6,96L370.4,96A2.4,2.4,0,0,0,368,98.4L368,112L368,128L368,141.6A2.4,2.4,0,0,0,370.4,144L381.6,144A2.4,2.4,0,0,1,384,146.4L384,157.6A2.4,2.4,0,0,1,381.6,160L370.4,160A2.4,2.4,0,0,0,368,162.4L368,173.6A2.4,2.4,0,0,1,365.6,176L354.4,176A2.4,2.4,0,0,1,352,173.6L352,162.4A2.4,2.4,0,0,0,349.6,160L338.4,160A2.4,2.4,0,0,1,336,157.6L336,146.4A2.4,2.4,0,0,1,338.4,144L349.6,144A2.4,2.4,0,0,0,352,141.6L352,130.4A2.4,2.4,0,0,0,349.6,128L336,128L322.4,128A2.4,2.4,0,0,0,320,130.4L320,144L320,157.6A2.4,2.4,0,0,1,317.6,160L306.4,160A2.4,2.4,0,0,1,304,157.6L304,144L304,130.4A2.4,2.4,0,0,0,301.6,128L290.4,128A2.4,2.4,0,0,1,288,125.6L288,114.4A2.4,2.4,0,0,1,290.4,112M290.4,160L301.6,160A2.4,2.4,0,0,1,304,162.4L304,173.6A2.4,2.4,0,0,1,301.6,176L290.4,176A2.4,2.4,0,0,1,288,173.6L288,162.4A2.4,2.4,0,0,1,290.4,160M290.4,288L301.6,288A2.4,2.4,0,0,1,304,290.4L304,301.6A2.4,2.4,0,0,1,301.6,304L290.4,304A2.4,2.4,0,0,1,288,301.6L288,290.4A2.4,2.4,0,0,1,290.4,288M290.4,528L301.6,528A2.4,2.4,0,0,1,304,530.4L304,544L304,557.6A2.4,2.4,0,0,1,301.6,560L290.4,560A2.4,2.4,0,0,1,288,557.6L288,544L288,530.4A2.4,2.4,0,0,1,290.4,528M290.4,576L304,576L317.6,576A2.4,2.4,0,0,0,320,573.6L320,562.4A2.4,2.4,0,0,1,322.4,560L333.6,560A2.4,2.4,0,0,0,336,557.6L336,546.4A2.4,2.4,0,0,1,338.4,544L349.6,544A2.4,2.4,0,0,1,352,546.4L352,557.6A2.4,2.4,0,0,0,354.4,560L368,560L381.6,560A2.4,2.4,0,0,1,384,562.4L384,573.6A2.4,2.4,0,0,1,381.6,576L368,576L352,576L338.4,576A2.4,2.4,0,0,0,336,578.4L336,589.6A2.4,2.4,0,0,1,333.6,592L320,592L304,592L290.4,592A2.4,2.4,0,0,1,288,589.6L288,578.4A2.4,2.4,0,0,1,290.4,576M306.4,176L317.6,176A2.4,2.4,0,0,1,320,178.4L320,192L320,205.6A2.4,2.4,0,0,1,317.6,208L306.4,208A2.4,2.4,0,0,1,304,205.6L304,192L304,178.4A2.4,2.4,0,0,1,306.4,176M306.4,352L317.6,352A2.4,2.4,0,0,1,320,354.4L320,365.6A2.4,2.4,0,0,1,317.6,368L306.4,368A2.4,2.4,0,0,1,304,365.6L304,354.4A2.4,2.4,0,0,1,306.4,352M306.4,432L317.6,432A2.4,2.4,0,0,1,320,434.4L320,445.6A2.4,2.4,0,0,1,317.6,448L306.4,448A2.4,2.4,0,0,1,304,445.6L304,434.4A2.4,2.4,0,0,1,306.4,432M322.4,160L333.6,160A2.4,2.4,0,0,1,336,162.4L336,173.6A2.4,2.4,0,0,1,333.6,176L322.4,176A2.4,2.4,0,0,1,320,173.6L320,162.4A2.4,2.4,0,0,1,322.4,160M322.4,224L333.6,224A2.4,2.4,0,0,0,336,221.6L336,208L336,194.4A2.4,2.4,0,0,1,338.4,192L352,192L365.6,192A2.4,2.4,0,0,1,368,194.4L368,205.6A2.4,2.4,0,0,1,365.6,208L354.4,208A2.4,2.4,0,0,0,352,210.4L352,221.6A2.4,2.4,0,0,0,354.4,224L365.6,224A2.4,2.4,0,0,0,368,221.6L368,210.4A2.4,2.4,0,0,1,370.4,208L381.6,208A2.4,2.4,0,0,0,384,205.6L384,194.4A2.4,2.4,0,0,1,386.4,192L397.6,192A2.4,2.4,0,0,1,400,194.4L400,208L400,221.6A2.4,2.4,0,0,1,397.6,224L386.4,224A2.4,2.4,0,0,0,384,226.4L384,237.6A2.4,2.4,0,0,0,386.4,240L397.6,240A2.4,2.4,0,0,1,400,242.4L400,253.6A2.4,2.4,0,0,1,397.6,256L386.4,256A2.4,2.4,0,0,0,384,258.4L384,269.6A2.4,2.4,0,0,1,381.6,272L368,272L354.4,272A2.4,2.4,0,0,1,352,269.6L352,258.4A2.4,2.4,0,0,1,354.4,256L365.6,256A2.4,2.4,0,0,0,368,253.6L368,242.4A2.4,2.4,0,0,0,365.6,240L352,240L336,240L322.4,240A2.4,2.4,0,0,1,320,237.6L320,226.4A2.4,2.4,0,0,1,322.4,224M322.4,448L333.6,448A2.4,2.4,0,0,0,336,445.6L336,432L336,418.4A2.4,2.4,0,0,1,338.4,416L349.6,416A2.4,2.4,0,0,1,352,418.4L352,432L352,445.6A2.4,2.4,0,0,0,354.4,448L365.6,448A2.4,2.4,0,0,1,368,450.4L368,461.6A2.4,2.4,0,0,1,365.6,464L352,464L336,464L322.4,464A2.4,2.4,0,0,1,320,461.6L320,450.4A2.4,2.4,0,0,1,322.4,448M322.4,512L333.6,512A2.4,2.4,0,0,1,336,514.4L336,525.6A2.4,2.4,0,0,1,333.6,528L322.4,528A2.4,2.4,0,0,1,320,525.6L320,514.4A2.4,2.4,0,0,1,322.4,512M338.4,480L352,480L368,480L384,480L397.6,480A2.4,2.4,0,0,1,400,482.4L400,493.6A2.4,2.4,0,0,1,397.6,496L386.4,496A2.4,2.4,0,0,0,384,498.4L384,509.6A2.4,2.4,0,0,1,381.6,512L370.4,512A2.4,2.4,0,0,1,368,509.6L368,498.4A2.4,2.4,0,0,0,365.6,496L352,496L338.4,496A2.4,2.4,0,0,1,336,493.6L336,482.4A2.4,2.4,0,0,1,338.4,480M354.4,512L365.6,512A2.4,2.4,0,0,1,368,514.4L368,525.6A2.4,2.4,0,0,1,365.6,528L354.4,528A2.4,2.4,0,0,1,352,525.6L352,514.4A2.4,2.4,0,0,1,354.4,512M370.4,176L381.6,176A2.4,2.4,0,0,1,384,178.4L384,189.6A2.4,2.4,0,0,1,381.6,192L370.4,192A2.4,2.4,0,0,1,368,189.6L368,178.4A2.4,2.4,0,0,1,370.4,176M370.4,384L384,384L397.6,384A2.4,2.4,0,0,1,400,386.4L400,397.6A2.4,2.4,0,0,1,397.6,400L386.4,400A2.4,2.4,0,0,0,384,402.4L384,413.6A2.4,2.4,0,0,1,381.6,416L370.4,416A2.4,2.4,0,0,1,368,413.6L368,400L368,386.4A2.4,2.4,0,0,1,370.4,384M370.4,432L384,432L397.6,432A2.4,2.4,0,0,1,400,434.4L400,445.6A2.4,2.4,0,0,1,397.6,448L384,448L370.4,448A2.4,2.4,0,0,1,368,445.6L368,434.4A2.4,2.4,0,0,1,370.4,432M370.4,528L384,528L397.6,528A2.4,2.4,0,0,0,400,525.6L400,512L400,498.4A2.4,2.4,0,0,1,402.4,496L413.6,496A2.4,2.4,0,0,0,416,493.6L416,482.4A2.4,2.4,0,0,0,413.6,480L402.4,480A2.4,2.4,0,0,1,400,477.6L400,466.4A2.4,2.4,0,0,1,402.4,464L416,464L429.6,464A2.4,2.4,0,0,0,432,461.6L432,450.4A2.4,2.4,0,0,1,434.4,448L445.6,448A2.4,2.4,0,0,0,448,445.6L448,434.4A2.4,2.4,0,0,1,450.4,432L461.6,432A2.4,2.4,0,0,1,464,434.4L464,445.6A2.4,2.4,0,0,0,466.4,448L480,448L493.6,448A2.4,2.4,0,0,0,496,445.6L496,432L496,418.4A2.4,2.4,0,0,1,498.4,416L509.6,416A2.4,2.4,0,0,1,512,418.4L512,432L512,445.6A2.4,2.4,0,0,0,514.4,448L525.6,448A2.4,2.4,0,0,1,528,450.4L528,464L528,477.6A2.4,2.4,0,0,0,530.4,480L544,480L560,480L573.6,480A2.4,2.4,0,0,1,576,482.4L576,496L576,509.6A2.4,2.4,0,0,0,578.4,512L589.6,512A2.4,2.4,0,0,1,592,514.4L592,525.6A2.4,2.4,0,0,1,589.6,528L578.4,528A2.4,2.4,0,0,0,576,530.4L576,541.6A2.4,2.4,0,0,1,573.6,544L562.4,544A2.4,2.4,0,0,1,560,541.6L560,528L560,514.4A2.4,2.4,0,0,0,557.6,512L546.4,512A2.4,2.4,0,0,0,544,514.4L544,528L544,541.6A2.4,2.4,0,0,1,541.6,544L528,544L512,544L498.4,544A2.4,2.4,0,0,1,496,541.6L496,530.4A2.4,2.4,0,0,0,493.6,528L482.4,528A2.4,2.4,0,0,0,480,530.4L480,541.6A2.4,2.4,0,0,1,477.6,544L464,544L450.4,544A2.4,2.4,0,0,1,448,541.6L448,528L448,512L448,498.4A2.4,2.4,0,0,0,445.6,496L434.4,496A2.4,2.4,0,0,0,432,498.4L432,512L432,525.6A2.4,2.4,0,0,1,429.6,528L418.4,528A2.4,2.4,0,0,0,416,530.4L416,541.6A2.4,2.4,0,0,1,413.6,544L402.4,544A2.4,2.4,0,0,0,400,546.4L400,557.6A2.4,2.4,0,0,1,397.6,560L386.4,560A2.4,2.4,0,0,1,384,557.6L384,546.4A2.4,2.4,0,0,0,381.6,544L370.4,544A2.4,2.4,0,0,1,368,541.6L368,530.4A2.4,2.4,0,0,1,370.4,528M386.4,160L397.6,160A2.4,2.4,0,0,1,400,162.4L400,173.6A2.4,2.4,0,0,1,397.6,176L386.4,176A2.4,2.4,0,0,1,384,173.6L384,162.4A2.4,2.4,0,0,1,386.4,160M386.4,320L397.6,320A2.4,2.4,0,0,1,400,322.4L400,336L400,349.6A2.4,2.4,0,0,1,397.6,352L386.4,352A2.4,2.4,0,0,1,384,349.6L384,336L384,322.4A2.4,2.4,0,0,1,386.4,320M386.4,576L397.6,576A2.4,2.4,0,0,1,400,578.4L400,589.6A2.4,2.4,0,0,1,397.6,592L386.4,592A2.4,2.4,0,0,1,384,589.6L384,578.4A2.4,2.4,0,0,1,386.4,576M402.4,80L413.6,80A2.4,2.4,0,0,0,416,77.6L416,66.4A2.4,2.4,0,0,1,418.4,64L429.6,64A2.4,2.4,0,0,1,432,66.4L432,80L432,93.6A2.4,2.4,0,0,0,434.4,96L445.6,96A2.4,2.4,0,0,0,448,93.6L448,80L448,66.4A2.4,2.4,0,0,1,450.4,64L461.6,64A2.4,2.4,0,0,1,464,66.4L464,80L464,96L464,112L464,125.6A2.4,2.4,0,0,1,461.6,128L448,128L434.4,128A2.4,2.4,0,0,0,432,130.4L432,141.6A2.4,2.4,0,0,1,429.6,144L418.4,144A2.4,2.4,0,0,0,416,146.4L416,157.6A2.4,2.4,0,0,1,413.6,160L402.4,160A2.4,2.4,0,0,1,400,157.6L400,144L400,128L400,112L400,96L400,82.4A2.4,2.4,0,0,1,402.4,80M402.4,224L413.6,224A2.4,2.4,0,0,1,416,226.4L416,237.6A2.4,2.4,0,0,1,413.6,240L402.4,240A2.4,2.4,0,0,1,400,237.6L400,226.4A2.4,2.4,0,0,1,402.4,224M402.4,352L413.6,352A2.4,2.4,0,0,1,416,354.4L416,365.6A2.4,2.4,0,0,1,413.6,368L402.4,368A2.4,2.4,0,0,1,400,365.6L400,354.4A2.4,2.4,0,0,1,402.4,352M402.4,400L413.6,400A2.4,2.4,0,0,1,416,402.4L416,413.6A2.4,2.4,0,0,0,418.4,416L429.6,416A2.4,2.4,0,0,1,432,418.4L432,432L432,445.6A2.4,2.4,0,0,1,429.6,448L418.4,448A2.4,2.4,0,0,1,416,445.6L416,434.4A2.4,2.4,0,0,0,413.6,432L402.4,432A2.4,2.4,0,0,1,400,429.6L400,416L400,402.4A2.4,2.4,0,0,1,402.4,400M418.4,160L429.6,160A2.4,2.4,0,0,1,432,162.4L432,173.6A2.4,2.4,0,0,1,429.6,176L418.4,176A2.4,2.4,0,0,1,416,173.6L416,162.4A2.4,2.4,0,0,1,418.4,160M418.4,560L429.6,560A2.4,2.4,0,0,0,432,557.6L432,546.4A2.4,2.4,0,0,1,434.4,544L445.6,544A2.4,2.4,0,0,1,448,546.4L448,560L448,573.6A2.4,2.4,0,0,0,450.4,576L461.6,576A2.4,2.4,0,0,1,464,578.4L464,589.6A2.4,2.4,0,0,1,461.6,592L448,592L432,592L418.4,592A2.4,2.4,0,0,1,416,589.6L416,576L416,562.4A2.4,2.4,0,0,1,418.4,560M434.4,144L448,144L461.6,144A2.4,2.4,0,0,1,464,146.4L464,160L464,173.6A2.4,2.4,0,0,1,461.6,176L450.4,176A2.4,2.4,0,0,1,448,173.6L448,162.4A2.4,2.4,0,0,0,445.6,160L434.4,160A2.4,2.4,0,0,1,432,157.6L432,146.4A2.4,2.4,0,0,1,434.4,144M434.4,176L445.6,176A2.4,2.4,0,0,1,448,178.4L448,192L448,208L448,221.6A2.4,2.4,0,0,1,445.6,224L434.4,224A2.4,2.4,0,0,1,432,221.6L432,208L432,192L432,178.4A2.4,2.4,0,0,1,434.4,176M434.4,320L445.6,320A2.4,2.4,0,0,1,448,322.4L448,333.6A2.4,2.4,0,0,0,450.4,336L461.6,336A2.4,2.4,0,0,1,464,338.4L464,349.6A2.4,2.4,0,0,1,461.6,352L450.4,352A2.4,2.4,0,0,0,448,354.4L448,365.6A2.4,2.4,0,0,0,450.4,368L461.6,368A2.4,2.4,0,0,1,464,370.4L464,381.6A2.4,2.4,0,0,1,461.6,384L448,384L434.4,384A2.4,2.4,0,0,1,432,381.6L432,368L432,352L432,336L432,322.4A2.4,2.4,0,0,1,434.4,320M450.4,304L461.6,304A2.4,2.4,0,0,1,464,306.4L464,317.6A2.4,2.4,0,0,1,461.6,320L450.4,320A2.4,2.4,0,0,1,448,317.6L448,306.4A2.4,2.4,0,0,1,450.4,304M450.4,400L461.6,400A2.4,2.4,0,0,1,464,402.4L464,413.6A2.4,2.4,0,0,1,461.6,416L450.4,416A2.4,2.4,0,0,1,448,413.6L448,402.4A2.4,2.4,0,0,1,450.4,400M464,466.4L464,480L464,496L464,509.6A2.4,2.4,0,0,0,466.4,512L480,512L496,512L509.6,512A2.4,2.4,0,0,0,512,509.6L512,496L512,480L512,466.4A2.4,2.4,0,0,0,509.6,464L496,464L480,464L466.4,464A2.4,2.4,0,0,0,464,466.4M466.4,208L477.6,208A2.4,2.4,0,0,1,480,210.4L480,221.6A2.4,2.4,0,0,0,482.4,224L493.6,224A2.4,2.4,0,0,0,496,221.6L496,210.4A2.4,2.4,0,0,1,498.4,208L509.6,208A2.4,2.4,0,0,0,512,205.6L512,194.4A2.4,2.4,0,0,1,514.4,192L525.6,192A2.4,2.4,0,0,1,528,194.4L528,208L528,221.6A2.4,2.4,0,0,1,525.6,224L514.4,224A2.4,2.4,0,0,0,512,226.4L512,240L512,253.6A2.4,2.4,0,0,1,509.6,256L498.4,256A2.4,2.4,0,0,0,496,258.4L496,272L496,288L496,304L496,317.6A2.4,2.4,0,0,1,493.6,320L482.4,320A2.4,2.4,0,0,1,480,317.6L480,304L480,288L480,272L480,256L480,242.4A2.4,2.4,0,0,0,477.6,240L466.4,240A2.4,2.4,0,0,1,464,237.6L464,224L464,210.4A2.4,2.4,0,0,1,466.4,208M466.4,320L477.6,320A2.4,2.4,0,0,1,480,322.4L480,333.6A2.4,2.4,0,0,1,477.6,336L466.4,336A2.4,2.4,0,0,1,464,333.6L464,322.4A2.4,2.4,0,0,1,466.4,320M466.4,384L477.6,384A2.4,2.4,0,0,0,480,381.6L480,370.4A2.4,2.4,0,0,1,482.4,368L493.6,368A2.4,2.4,0,0,1,496,370.4L496,381.6A2.4,2.4,0,0,0,498.4,384L512,384L525.6,384A2.4,2.4,0,0,0,528,381.6L528,370.4A2.4,2.4,0,0,0,525.6,368L514.4,368A2.4,2.4,0,0,1,512,365.6L512,354.4A2.4,2.4,0,0,1,514.4,352L528,352L544,352L557.6,352A2.4,2.4,0,0,1,560,354.4L560,365.6A2.4,2.4,0,0,0,562.4,368L573.6,368A2.4,2.4,0,0,1,576,370.4L576,381.6A2.4,2.4,0,0,1,573.6,384L560,384L546.4,384A2.4,2.4,0,0,0,544,386.4L544,397.6A2.4,2.4,0,0,1,541.6,400L530.4,400A2.4,2.4,0,0,0,528,402.4L528,413.6A2.4,2.4,0,0,1,525.6,416L514.4,416A2.4,2.4,0,0,1,512,413.6L512,402.4A2.4,2.4,0,0,0,509.6,400L498.4,400A2.4,2.4,0,0,0,496,402.4L496,413.6A2.4,2.4,0,0,1,493.6,416L482.4,416A2.4,2.4,0,0,1,480,413.6L480,402.4A2.4,2.4,0,0,0,477.6,400L466.4,400A2.4,2.4,0,0,1,464,397.6L464,386.4A2.4,2.4,0,0,1,466.4,384M466.4,560L480,560L493.6,560A2.4,2.4,0,0,1,496,562.4L496,573.6A2.4,2.4,0,0,1,493.6,576L480,576L466.4,576A2.4,2.4,0,0,1,464,573.6L464,562.4A2.4,2.4,0,0,1,466.4,560M482.4,192L493.6,192A2.4,2.4,0,0,1,496,194.4L496,205.6A2.4,2.4,0,0,1,493.6,208L482.4,208A2.4,2.4,0,0,1,480,205.6L480,194.4A2.4,2.4,0,0,1,482.4,192M482.4,336L496,336L509.6,336A2.4,2.4,0,0,1,512,338.4L512,349.6A2.4,2.4,0,0,1,509.6,352L496,352L482.4,352A2.4,2.4,0,0,1,480,349.6L480,338.4A2.4,2.4,0,0,1,482.4,336M482.4,480L493.6,480A2.4,2.4,0,0,1,496,482.4L496,493.6A2.4,2.4,0,0,1,493.6,496L482.4,496A2.4,2.4,0,0,1,480,493.6L480,482.4A2.4,2.4,0,0,1,482.4,480M514.4,256L525.6,256A2.4,2.4,0,0,1,528,258.4L528,269.6A2.4,2.4,0,0,1,525.6,272L514.4,272A2.4,2.4,0,0,1,512,269.6L512,258.4A2.4,2.4,0,0,1,514.4,256M514.4,304L525.6,304A2.4,2.4,0,0,1,528,306.4L528,320L528,333.6A2.4,2.4,0,0,1,525.6,336L514.4,336A2.4,2.4,0,0,1,512,333.6L512,320L512,306.4A2.4,2.4,0,0,1,514.4,304M530.4,240L544,240L557.6,240A2.4,2.4,0,0,1,560,242.4L560,253.6A2.4,2.4,0,0,0,562.4,256L573.6,256A2.4,2.4,0,0,0,576,253.6L576,242.4A2.4,2.4,0,0,1,578.4,240L589.6,240A2.4,2.4,0,0,1,592,242.4L592,256L592,272L592,285.6A2.4,2.4,0,0,1,589.6,288L578.4,288A2.4,2.4,0,0,1,576,285.6L576,274.4A2.4,2.4,0,0,0,573.6,272L562.4,272A2.4,2.4,0,0,0,560,274.4L560,285.6A2.4,2.4,0,0,1,557.6,288L546.4,288A2.4,2.4,0,0,1,544,285.6L544,272L544,258.4A2.4,2.4,0,0,0,541.6,256L530.4,256A2.4,2.4,0,0,1,528,253.6L528,242.4A2.4,2.4,0,0,1,530.4,240M530.4,416L544,416L560,416L573.6,416A2.4,2.4,0,0,1,576,418.4L576,429.6A2.4,2.4,0,0,1,573.6,432L562.4,432A2.4,2.4,0,0,0,560,434.4L560,445.6A2.4,2.4,0,0,1,557.6,448L544,448L530.4,448A2.4,2.4,0,0,1,528,445.6L528,432L528,418.4A2.4,2.4,0,0,1,530.4,416M546.4,192L557.6,192A2.4,2.4,0,0,1,560,194.4L560,208L560,221.6A2.4,2.4,0,0,1,557.6,224L546.4,224A2.4,2.4,0,0,1,544,221.6L544,208L544,194.4A2.4,2.4,0,0,1,546.4,192M546.4,304L557.6,304A2.4,2.4,0,0,0,560,301.6L560,290.4A2.4,2.4,0,0,1,562.4,288L573.6,288A2.4,2.4,0,0,1,576,290.4L576,304L576,317.6A2.4,2.4,0,0,1,573.6,320L562.4,320A2.4,2.4,0,0,0,560,322.4L560,333.6A2.4,2.4,0,0,1,557.6,336L546.4,336A2.4,2.4,0,0,1,544,333.6L544,320L544,306.4A2.4,2.4,0,0,1,546.4,304M562.4,224L573.6,224A2.4,2.4,0,0,1,576,226.4L576,237.6A2.4,2.4,0,0,1,573.6,240L562.4,240A2.4,2.4,0,0,1,560,237.6L560,226.4A2.4,2.4,0,0,1,562.4,224M562.4,336L573.6,336A2.4,2.4,0,0,0,576,333.6L576,322.4A2.4,2.4,0,0,1,578.4,320L589.6,320A2.4,2.4,0,0,1,592,322.4L592,336L592,352L592,365.6A2.4,2.4,0,0,1,589.6,368L578.4,368A2.4,2.4,0,0,1,576,365.6L576,354.4A2.4,2.4,0,0,0,573.6,352L562.4,352A2.4,2.4,0,0,1,560,349.6L560,338.4A2.4,2.4,0,0,1,562.4,336M562.4,448L573.6,448A2.4,2.4,0,0,1,576,450.4L576,461.6A2.4,2.4,0,0,1,573.6,464L562.4,464A2.4,2.4,0,0,1,560,461.6L560,450.4A2.4,2.4,0,0,1,562.4,448M578.4,192L589.6,192A2.4,2.4,0,0,1,592,194.4L592,205.6A2.4,2.4,0,0,1,589.6,208L578.4,208A2.4,2.4,0,0,1,576,205.6L576,194.4A2.4,2.4,0,0,1,578.4,192M578.4,400L589.6,400A2.4,2.4,0,0,1,592,402.4L592,413.6A2.4,2.4,0,0,1,589.6,416L578.4,416A2.4,2.4,0,0,1,576,413.6L576,402.4A2.4,2.4,0,0,1,578.4,400M578.4,464L589.6,464A2.4,2.4,0,0,1,592,466.4L592,477.6A2.4,2.4,0,0,1,589.6,480L578.4,480A2.4,2.4,0,0,1,576,477.6L576,466.4A2.4,2.4,0,0,1,578.4,464Z" />
<path d="M4.7253,9.0689C6.179,9.0436 6.4149,7.6154 6.4149,6.769C6.4149,5.5163 5.775,5.0788 5,5C4.0425,5.4242 3.3403,6.146 3.2555,7.2606C3.2416,7.4443 3.237,7.6894 3.2516,7.9757C3.2906,8.7383 3.8493,9.0843 4.7253,9.0689 M 12.2447 10.8068 C 11.2047 10.8068 10.1118 10.1673 10.06 8.9707 C 8.8774 10.2223 7.0538 10.8186 4.7253 10.8186 C 2.3769 10.8186 1.396 9.2175 1.396 7.9703 C 1.4554 3.8126 1.3605 2.255 1.341 1.9353 C 1.3393 1.907 1.3381 1.8884 1.3377 1.8785 L 1.3373 1.8677 C 1.3313 1.7096 1.3224 1.4733 1.172 1.4572 C 1.0786 1.4472 1.0183 1.4757 0.911 1.6094 C 0.75 1.8233 0.425 1.908 0.2273 1.7937 C -0.0116 1.6555 -0.0562 1.3505 0.0647 1.0697 C 0.4002 0.3212 0.9379 -0.01 1.6625 0.0003 C 2.9146 0.0182 3.2738 0.8359 3.2738 1.8575 C 3.2738 1.8575 3.246 3.3292 3.246 4.1579 C 3.689 3.7969 4.3397 3.4098 5.4266 3.4098 C 7.6899 3.4098 9.1267 6.2118 7.6503 8.8925 C 9.5428 8.0197 9.9378 6.5164 10.0112 5.0238 L 10.0043 4.5203 C 10.0043 3.9552 10.3688 3.4767 10.9361 3.4767 C 11.5034 3.4767 11.8802 3.9877 11.86 4.5271 C 11.7919 6.3438 11.7644 7.5395 11.7644 8.1722 C 11.7644 8.5384 11.9642 9.0996 12.5555 9.0996 C 13.7134 9.0996 14.094 8.1922 14.1838 6.0595 C 14.1885 5.2642 14.1927 4.5997 14.1927 4.5997 C 13.6679 4.5997 13.4094 4.324 13.4094 3.9795 C 13.4094 3.635 13.683 3.3163 14.1321 3.3163 C 14.1321 3.3163 14.133 2.1182 14.133 1.622 C 14.133 1.0569 14.5715 0.5883 15.1388 0.5883 C 15.7062 0.5883 16.1567 1.0569 16.1567 1.622 C 16.1567 1.8095 16.1495 2.028 16.1416 2.2695 C 16.1315 2.5784 16.1201 2.9246 16.121 3.2909 L 16.2032 3.2905 H 16.2032 C 16.357 3.29 16.7051 3.2888 17.1681 3.2834 C 17.7198 3.2769 17.9445 3.5851 17.9445 3.9709 C 17.9445 4.3567 17.6475 4.626 17.2602 4.6276 C 16.9012 4.6291 16.1083 4.6247 16.1083 4.6247 C 16.0723 5.7674 16.0382 7.1451 16.0382 8.2475 C 16.0382 8.6451 16.3126 9.0995 16.9767 9.0995 C 18.3163 9.0995 18.8167 7.9092 18.9173 5.6498 C 18.9095 4.0766 18.8907 3.1653 18.8765 2.4785 V 2.4785 C 18.8666 1.9969 18.859 1.6258 18.859 1.2143 C 18.859 0.6493 19.3295 0.1442 19.8967 0.1442 C 20.4641 0.1442 20.8826 0.5977 20.8826 1.1627 C 20.8826 1.598 20.8651 2.1069 20.8413 2.8009 V 2.8009 V 2.801 C 20.801 3.9747 20.7425 5.6778 20.7195 8.4504 C 20.7165 8.8195 20.8967 9.0795 21.3748 9.0795 C 22.6524 9.0795 23.0066 7.6955 23.119 5.7625 C 23.1197 5.6695 23.1205 5.5785 23.1214 5.4891 L 23.1214 5.4887 C 23.1231 5.3054 23.1247 5.1289 23.1247 4.9561 C 23.1247 4.391 23.5011 3.9337 24.0686 3.9337 C 24.6359 3.9337 24.9694 4.4022 24.9694 4.9673 C 24.9694 5.3698 24.9562 5.7464 24.9427 6.1348 C 24.9307 6.4777 24.9184 6.8299 24.9146 7.2176 C 24.9047 8.2151 25.2455 9.0938 26.0756 9.0914 C 26.8726 9.0891 27.7479 8.7536 27.7691 7.045 C 27.7751 6.5701 27.7683 6.2053 27.7615 5.8371 V 5.837 V 5.8369 V 5.8368 C 27.7564 5.5642 27.7513 5.2897 27.7513 4.9673 C 27.7513 4.4022 28.1451 3.9337 28.7125 3.9337 C 29.2795 3.9337 29.6737 4.4022 29.6737 4.9673 C 29.6737 5.3051 29.6614 5.6415 29.6477 6.0145 V 6.0145 V 6.0146 V 6.0146 C 29.6307 6.4783 29.6117 6.9984 29.6117 7.6477 C 29.6117 7.6477 29.5769 10.0141 29.66 10.5378 C 29.9203 10.4512 30.2958 10.1968 30.6935 9.5802 C 30.9337 9.208 31.3928 9.1282 31.6758 9.293 C 32.0653 9.52 32.0514 9.9635 31.9058 10.2875 C 31.5298 11.1239 31.0409 11.6358 29.8047 12.0595 C 29.8086 13.4782 29.7098 15.5713 27.0868 15.9496 C 24.8405 16.2735 23.8244 14.9708 23.8211 13.8623 C 23.8157 12.112 25.5649 11.6022 28.0897 10.9665 L 28.0087 10.099 C 28.0087 10.099 27.4464 10.8364 26.0215 10.8008 C 24.9223 10.7733 24.1663 10.2543 23.7077 9.5213 C 23.1787 10.3901 22.3495 10.8105 21.1004 10.8105 C 20.2775 10.8105 19.4934 10.3758 19.1051 9.7457 C 18.5325 10.4308 17.7339 10.8015 16.6607 10.8015 C 15.7256 10.8015 15.0346 10.4786 14.6209 9.9746 C 14.087 10.5712 13.318 10.8068 12.2447 10.8068 Z M 28.2548 12.363 C 26.9786 12.6385 25.3798 13.0407 25.3983 13.8266 C 25.4158 14.5636 26.1767 14.6977 26.8111 14.5666 C 28.1286 14.2943 28.2816 13.5015 28.2548 12.363 Z M 11.9704 1.6249 C 11.9704 1.0544 11.5073 0.5932 10.9347 0.5932 C 10.3619 0.5932 9.8989 1.0544 9.8989 1.6249 C 9.8989 2.1953 10.3619 2.6566 10.9347 2.6566 C 11.5073 2.6566 11.9704 2.1953 11.9704 1.6249 Z" fill='#000000' transform='translate(520.000000, 556.000000) scale(2.250000, 2.250000)' />
</g>
<g id='corners-outer-1' transform="translate(64, 64) scale(5.60, 5.60) " style='fill:#000000' >
<path d="M 17.14 0 H 2 C 0.9 0 0 0.9 0 2 V 18 C 0 19.1 0.9 20 2 20 H 18 C 19.1 20 20 19.1 20 18 V 2 C 20 0.9 19.1 0 18 0 H 17.14 Z M 17.14 5.71 V 15.14 C 17.14 16.25 16.25 17.14 15.14 17.14 H 4.86 C 3.75 17.14 2.86 16.25 2.86 15.14 V 4.86 C 2.86 3.75 3.75 2.86 4.86 2.86 H 15.14 C 16.25 2.86 17.14 3.75 17.14 4.86 V 5.71 Z" />
</g>
<g id='corners-inner-1' transform="translate(96, 96) scale(5.60, 5.60) " style='fill:#000000' >
<path d="M 5.64 0 H 1 C 0.45 0 0 0.45 0 1 V 7.46 C 0 8.01 0.45 8.46 1 8.46 H 7.46 C 8.01 8.46 8.46 8.01 8.46 7.46 V 1 C 8.46 0.45 8.01 0 7.46 0 H 5.64 Z" />
</g>
<g id='corners-outer-2' transform="translate(480, 64) scale(5.60, 5.60) " style='fill:#000000' >
<path d="M 17.14 0 H 2 C 0.9 0 0 0.9 0 2 V 18 C 0 19.1 0.9 20 2 20 H 18 C 19.1 20 20 19.1 20 18 V 2 C 20 0.9 19.1 0 18 0 H 17.14 Z M 17.14 5.71 V 15.14 C 17.14 16.25 16.25 17.14 15.14 17.14 H 4.86 C 3.75 17.14 2.86 16.25 2.86 15.14 V 4.86 C 2.86 3.75 3.75 2.86 4.86 2.86 H 15.14 C 16.25 2.86 17.14 3.75 17.14 4.86 V 5.71 Z" />
</g>
<g id='corners-inner-2' transform="translate(512, 96) scale(5.60, 5.60) " style='fill:#000000' >
<path d="M 5.64 0 H 1 C 0.45 0 0 0.45 0 1 V 7.46 C 0 8.01 0.45 8.46 1 8.46 H 7.46 C 8.01 8.46 8.46 8.01 8.46 7.46 V 1 C 8.46 0.45 8.01 0 7.46 0 H 5.64 Z" />
</g>
<g id='corners-outer-3' transform="translate(64, 480) scale(5.60, 5.60) " style='fill:#000000' >
<path d="M 17.14 0 H 2 C 0.9 0 0 0.9 0 2 V 18 C 0 19.1 0.9 20 2 20 H 18 C 19.1 20 20 19.1 20 18 V 2 C 20 0.9 19.1 0 18 0 H 17.14 Z M 17.14 5.71 V 15.14 C 17.14 16.25 16.25 17.14 15.14 17.14 H 4.86 C 3.75 17.14 2.86 16.25 2.86 15.14 V 4.86 C 2.86 3.75 3.75 2.86 4.86 2.86 H 15.14 C 16.25 2.86 17.14 3.75 17.14 4.86 V 5.71 Z" />
</g>
<g id='corners-inner-3' transform="translate(96, 512) scale(5.60, 5.60) " style='fill:#000000' >
<path d="M 5.64 0 H 1 C 0.45 0 0 0.45 0 1 V 7.46 C 0 8.01 0.45 8.46 1 8.46 H 7.46 C 8.01 8.46 8.46 8.01 8.46 7.46 V 1 C 8.46 0.45 8.01 0 7.46 0 H 5.64 Z" />
</g>
</svg>
